<?xml version="1.0" standalone="no"?>
<!DOCTYPE svg PUBLIC "-//W3C//DTD SVG 20010904//EN"
 "http://www.w3.org/TR/2001/REC-SVG-20010904/DTD/svg10.dtd">
<svg version="1.0" xmlns="http://www.w3.org/2000/svg"
 width="4746.000000pt" height="4746.000000pt" viewBox="0 0 4746.000000 4746.000000"
 preserveAspectRatio="xMidYMid meet">
<metadata>
Created by potrace 1.14, written by Peter Selinger 2001-2017
</metadata>
<g transform="translate(0.000000,4746.000000) scale(0.100000,-0.100000)"
fill="#000000" stroke="none">
<path d="M27838 47455 c-2 -2 -34 -6 -73 -9 -144 -13 -139 -10 -239 -168 -33
-51 -74 -115 -91 -143 -46 -71 -254 -415 -352 -580 -45 -77 -87 -145 -93 -152
-5 -7 -10 -14 -10 -17 0 -3 -32 -58 -71 -123 -39 -65 -82 -136 -95 -159 -12
-22 -58 -99 -100 -170 -42 -71 -85 -142 -94 -159 -9 -16 -77 -131 -150 -255
-73 -124 -163 -277 -200 -340 -37 -63 -100 -171 -140 -240 -41 -69 -80 -136
-87 -150 -8 -14 -22 -38 -32 -55 -21 -34 -245 -415 -271 -460 -14 -25 -402
-692 -466 -802 -77 -131 -114 -198 -114 -205 0 -4 -4 -8 -10 -8 -5 0 -10 -4
-10 -10 0 -5 -22 -47 -49 -92 -27 -46 -129 -220 -226 -388 -169 -290 -190
-326 -233 -402 -11 -18 -44 -76 -74 -128 -30 -52 -66 -113 -78 -135 -13 -22
-44 -76 -70 -120 -26 -44 -59 -100 -72 -125 -27 -48 -222 -385 -237 -410 -9
-14 -89 -152 -446 -770 -81 -140 -159 -275 -173 -300 -14 -25 -33 -57 -43 -72
-11 -14 -19 -28 -19 -31 0 -3 -44 -81 -98 -174 -54 -92 -145 -249 -202 -348
-56 -99 -124 -216 -150 -260 -26 -44 -127 -219 -224 -390 -98 -170 -187 -322
-197 -337 -10 -15 -19 -29 -19 -32 0 -3 -22 -43 -49 -88 -48 -83 -104 -179
-317 -550 -63 -108 -122 -210 -131 -227 -24 -40 -175 -301 -189 -326 -6 -11
-35 -60 -64 -110 -29 -49 -60 -103 -70 -120 -9 -16 -115 -199 -235 -405 -121
-206 -225 -386 -233 -400 -15 -27 -24 -42 -123 -212 -36 -62 -196 -338 -356
-613 -160 -275 -300 -516 -311 -535 -93 -163 -494 -852 -512 -880 -6 -8 -13
-22 -17 -30 -6 -12 -168 -292 -202 -350 -5 -8 -92 -157 -193 -330 -101 -173
-187 -322 -193 -331 -5 -9 -19 -32 -29 -50 -27 -48 -437 -754 -505 -869 -30
-52 -61 -104 -67 -115 -43 -76 -84 -146 -107 -182 -15 -24 -27 -45 -27 -47 0
-2 -118 -206 -261 -453 -144 -246 -269 -461 -278 -478 -9 -16 -24 -41 -32 -55
-21 -33 -197 -335 -221 -380 -11 -19 -30 -53 -43 -75 -14 -22 -28 -47 -32 -55
-4 -8 -21 -37 -38 -65 -18 -27 -45 -75 -62 -105 -17 -30 -182 -316 -368 -635
-186 -319 -361 -620 -390 -670 -28 -49 -84 -146 -124 -215 -145 -249 -176
-302 -195 -333 -80 -138 -199 -344 -235 -407 -13 -25 -27 -47 -30 -50 -3 -3
-14 -21 -25 -40 -10 -19 -26 -48 -36 -65 -10 -16 -33 -57 -52 -90 -19 -33 -68
-116 -108 -185 -40 -69 -81 -141 -92 -160 -11 -19 -24 -39 -28 -45 -4 -5 -21
-35 -37 -65 -17 -30 -66 -116 -110 -190 -71 -122 -269 -470 -353 -625 -18 -33
-52 -94 -75 -135 -23 -41 -57 -102 -75 -135 -19 -33 -43 -77 -54 -97 -113
-201 -291 -501 -371 -623 -18 -27 -72 -117 -120 -199 -48 -82 -93 -159 -100
-170 -7 -12 -24 -39 -37 -62 -36 -63 -168 -287 -178 -304 -6 -8 -47 -78 -92
-155 -101 -174 -136 -234 -328 -560 -84 -143 -190 -324 -236 -401 -46 -78 -91
-155 -101 -172 -57 -96 -78 -133 -106 -182 -17 -30 -34 -56 -39 -58 -4 -2 -8
-8 -8 -12 0 -5 -24 -49 -53 -97 -29 -48 -56 -95 -60 -103 -4 -8 -18 -33 -31
-55 -21 -34 -46 -77 -111 -187 -5 -10 -66 -113 -135 -229 -69 -117 -137 -232
-152 -258 -14 -25 -48 -83 -75 -128 -71 -121 -188 -322 -213 -368 -13 -22 -34
-60 -48 -85 -14 -25 -68 -118 -121 -208 -53 -90 -101 -173 -108 -185 -11 -20
-44 -68 -244 -354 -116 -165 -156 -246 -174 -354 -3 -19 -8 -41 -10 -49 -2 -8
-7 -72 -10 -142 -5 -121 -5 -127 15 -138 12 -6 25 -21 29 -33 6 -15 17 -22 37
-23 30 -1 144 -52 226 -101 174 -104 234 -140 257 -153 14 -8 140 -83 279
-165 139 -83 277 -164 307 -180 30 -17 60 -36 67 -43 7 -7 16 -12 20 -12 4 0
67 -36 139 -80 73 -44 133 -80 135 -80 1 0 93 -54 204 -120 111 -66 206 -120
211 -120 5 0 9 -4 9 -10 0 -5 4 -10 9 -10 4 0 138 -77 297 -171 159 -95 309
-183 334 -197 25 -14 62 -36 83 -49 21 -13 53 -32 70 -42 18 -10 145 -85 282
-166 138 -82 259 -154 270 -160 11 -6 87 -51 170 -100 82 -50 157 -94 167
-100 9 -5 40 -24 70 -41 29 -17 127 -75 218 -129 193 -115 373 -221 415 -245
53 -30 578 -341 644 -381 34 -22 65 -39 68 -39 3 0 17 -8 31 -19 15 -10 43
-27 62 -38 19 -11 186 -109 370 -218 184 -109 412 -243 505 -298 94 -55 184
-108 200 -118 17 -11 37 -22 45 -26 8 -3 107 -58 220 -122 113 -63 228 -127
257 -143 29 -15 128 -71 220 -124 92 -53 182 -104 198 -114 224 -128 513 -312
660 -419 109 -80 133 -100 208 -174 54 -53 58 -60 51 -89 -3 -18 -10 -39 -14
-48 -11 -21 -33 -74 -34 -80 -3 -14 -122 -249 -138 -272 -11 -16 -17 -28 -14
-28 4 0 -5 -18 -19 -40 -14 -22 -25 -42 -25 -44 0 -2 -20 -39 -45 -80 -25 -42
-45 -78 -45 -80 0 -8 -347 -605 -433 -746 -22 -36 -48 -78 -57 -95 -10 -16
-57 -95 -105 -175 -49 -80 -93 -154 -99 -165 -13 -24 -299 -495 -331 -545 -12
-19 -73 -118 -135 -220 -62 -102 -127 -207 -145 -235 -18 -27 -40 -63 -49 -80
-9 -16 -24 -42 -34 -57 -9 -14 -34 -55 -55 -90 -21 -34 -67 -110 -102 -167
-36 -57 -65 -105 -65 -108 0 -2 -5 -9 -10 -16 -10 -12 -264 -421 -298 -481
-18 -31 -28 -46 -53 -86 -15 -22 -178 -288 -389 -635 -41 -66 -156 -257 -257
-425 -100 -168 -186 -310 -190 -316 -5 -5 -13 -19 -19 -30 -58 -103 -130 -224
-145 -246 -11 -14 -19 -28 -19 -31 0 -2 -43 -80 -96 -173 -144 -252 -263 -490
-279 -555 -8 -34 26 -74 132 -155 43 -32 80 -62 81 -66 2 -5 8 -8 13 -8 5 0
44 -24 86 -54 151 -104 536 -340 858 -526 17 -10 71 -41 120 -70 120 -70 524
-302 615 -353 19 -10 64 -36 100 -57 68 -39 137 -78 205 -115 22 -12 137 -78
255 -145 118 -67 235 -134 260 -148 225 -126 661 -383 699 -411 25 -19 25 -28
-4 -151 -37 -160 -255 -604 -510 -1038 -126 -215 -377 -622 -625 -1012 -285
-448 -321 -510 -517 -890 -74 -143 -131 -251 -201 -380 -57 -105 -150 -258
-208 -339 -119 -169 -262 -381 -318 -471 -32 -52 -69 -111 -82 -130 -103 -156
-259 -493 -288 -622 -32 -138 -32 -139 20 -197 57 -63 145 -136 368 -303 94
-70 176 -131 181 -136 6 -4 39 -28 75 -52 35 -25 71 -50 80 -57 17 -14 367
-262 443 -315 26 -18 63 -44 81 -58 19 -14 42 -31 52 -38 30 -20 158 -110 169
-119 6 -4 39 -28 75 -52 36 -25 67 -48 70 -51 3 -3 43 -32 90 -65 153 -106
507 -375 597 -453 l87 -77 162 0 162 -1 28 53 c16 29 32 53 37 53 4 0 7 4 7
10 0 5 102 184 227 397 124 214 234 402 243 418 10 17 79 136 155 265 213 365
237 406 316 540 40 69 79 134 85 145 24 43 56 99 191 330 78 132 150 256 161
275 11 19 135 231 275 471 140 240 276 477 302 525 26 49 62 116 80 149 18 33
63 116 100 185 37 69 79 145 93 170 13 25 62 114 109 198 46 84 131 237 190
340 58 103 117 207 131 232 14 25 33 59 42 75 10 17 69 120 132 230 63 110
129 225 147 255 17 30 36 62 41 70 37 62 100 175 100 182 0 4 5 8 10 8 6 0 10
4 10 9 0 7 174 311 229 401 18 28 256 433 276 469 11 20 28 47 36 61 9 14 89
149 179 300 89 151 166 282 171 290 19 32 130 222 214 365 324 552 501 855
517 885 10 19 28 51 39 70 12 19 61 105 110 190 49 85 93 162 98 170 77 124
434 770 551 995 40 77 87 165 105 195 17 30 42 76 56 103 13 26 27 47 31 47 5
0 8 5 8 10 0 6 46 88 103 183 57 94 124 208 149 252 69 120 82 144 122 213 20
34 52 90 72 125 20 34 46 78 57 97 11 19 33 60 50 90 16 30 36 62 43 71 8 8
14 19 14 22 0 4 18 36 40 72 22 36 40 67 40 69 0 4 151 267 170 296 5 8 17 29
26 45 9 17 91 158 182 315 91 157 174 301 185 320 10 19 114 199 230 400 199
346 238 414 369 640 163 282 262 458 318 565 109 209 183 346 280 520 37 66
78 140 92 165 14 25 51 90 83 145 32 55 67 116 78 135 44 79 443 755 472 800
12 19 88 145 168 280 80 135 199 336 266 447 66 112 139 235 161 275 23 40 45
80 50 88 5 8 41 71 80 140 39 69 76 134 82 145 7 11 76 137 155 280 79 143
148 267 153 275 5 8 18 31 28 50 26 49 196 353 270 483 34 60 62 111 62 113 0
3 8 17 19 32 10 15 71 122 136 237 65 116 152 269 193 340 41 72 88 155 105
185 16 30 33 60 37 65 5 6 23 37 40 70 18 33 37 66 43 73 6 7 20 32 32 55 12
23 64 114 115 202 51 88 102 176 113 195 10 19 52 91 92 160 134 231 258 445
283 490 14 25 35 61 47 80 12 19 91 154 175 300 84 146 188 325 232 398 43 73
78 135 78 137 0 2 24 43 54 92 29 48 91 153 137 233 46 80 89 154 96 165 7 11
16 27 20 35 4 8 47 82 95 163 48 82 88 150 88 152 0 2 17 32 38 66 22 35 74
125 117 199 43 74 134 232 203 350 226 389 302 522 480 830 97 168 185 323
198 345 12 22 54 96 94 165 69 119 99 171 143 250 11 19 45 80 77 135 31 55
67 118 79 140 12 22 31 56 42 75 12 19 32 55 46 80 13 25 28 52 33 60 22 34
86 149 340 605 147 264 280 503 295 530 34 60 101 176 220 380 48 83 99 170
113 195 13 25 32 59 42 75 10 17 32 57 50 90 122 226 175 301 285 410 131 129
132 132 141 435 l6 185 -393 220 c-215 121 -415 233 -443 248 -28 16 -85 48
-126 72 -41 23 -185 104 -320 180 -135 76 -285 161 -335 190 -49 28 -121 69
-160 90 -90 50 -96 53 -400 225 -217 123 -875 493 -950 534 -27 16 -54 31 -60
36 -5 4 -41 24 -78 44 -37 20 -82 45 -100 55 -18 10 -174 98 -347 196 -173 98
-328 185 -345 195 -16 9 -64 36 -105 59 -41 23 -82 46 -90 51 -8 5 -60 34
-115 65 -55 31 -109 61 -120 67 -11 7 -54 31 -95 54 -41 22 -93 52 -115 64
-22 13 -74 42 -115 66 -41 23 -124 70 -185 104 -60 34 -128 72 -150 84 -22 13
-107 61 -190 108 -82 47 -179 101 -215 120 -36 20 -117 63 -180 98 -63 34
-142 77 -175 95 -33 18 -114 61 -180 97 -66 36 -156 85 -200 108 -302 162
-876 482 -1085 605 -63 38 -126 74 -140 82 -14 8 -37 22 -52 31 -15 9 -72 44
-125 76 -232 140 -456 300 -537 384 -29 31 -39 49 -38 72 1 43 152 348 362
730 34 63 78 144 98 180 19 36 38 70 42 75 4 6 22 37 40 70 57 104 136 246
200 360 34 61 78 139 98 175 19 36 57 103 84 149 26 46 48 86 48 88 0 3 8 17
18 31 11 15 32 52 49 82 17 30 39 71 50 90 70 123 230 402 251 440 42 75 526
919 582 1015 29 50 62 108 74 130 13 22 76 132 141 245 65 113 161 279 213
370 52 91 103 179 113 195 10 17 38 66 64 110 25 44 56 98 69 120 77 133 359
621 380 660 6 11 16 27 22 35 6 8 25 40 41 70 17 30 64 114 106 187 42 72 85
147 96 165 116 203 185 319 245 412 154 236 195 311 235 431 32 98 39 135 47
237 l4 67 -202 99 c-285 140 -635 311 -893 437 -121 59 -326 159 -455 223
-129 63 -341 166 -470 229 -340 167 -455 221 -535 253 -184 74 -314 138 -420
205 -55 36 -162 135 -189 176 -16 26 -16 30 7 95 35 99 149 338 237 499 15 28
53 100 85 160 46 86 283 515 408 735 11 19 30 53 42 75 13 22 98 171 190 330
92 160 176 306 187 325 11 19 51 87 88 150 63 107 220 376 260 445 9 17 191
328 404 693 213 364 401 688 418 720 17 31 39 68 48 82 9 14 36 61 60 105 23
44 59 109 80 145 64 112 117 217 139 274 28 77 25 202 -8 265 -45 86 -135 158
-291 233 -67 33 -112 52 -245 106 -36 14 -1190 592 -1720 862 -121 61 -231
113 -245 116 -32 5 -129 12 -132 9z"/>
</g>
</svg>
